<?xml version="1.0" encoding="UTF-8"?><svg id="_イヤー_1" xmlns="http://www.w3.org/2000/svg" viewBox="0 0 259.32 289.21"><defs><style>.cls-1{fill:#036eb8;}.cls-2{fill:#e4007f;}.cls-3{fill:#231815;}</style></defs><path class="cls-3" d="M40.01,229.17c-.84-2.95-3.29-4.82-6.62-4.82-3.63,0-7.87,2.98-8.5,6.69-1.85,10.28,19.88,5.29,17.1,20.74-1.41,7.86-8.52,13.34-16.2,13.34-7.15,0-12.17-4.35-12.72-11.3l4.32-1.3c.69,5.08,3.45,8.7,9.1,8.7s10.41-4.26,11.37-9.63c.96-5.29-2.83-6.94-6.82-8.43-5.45-2.12-11.67-4.62-10.39-11.87,1.18-6.48,7.41-10.82,13.62-10.82,4.35,0,8.55,2.89,9.69,6.85l-3.94,1.84Z"/><path class="cls-3" d="M86.54,264.21h-4.18l1.38-7.69h-.17c-4.12,5.46-11.56,8.62-17.85,8.62-12.96,0-19.31-10.11-17.07-22.6,2.25-12.51,12.01-22.05,24.89-22.05,6.58,0,12.34,2.97,15,8.33h.18l1.33-7.41h4.18l-7.69,42.81Zm-33.71-21.68c-1.76,9.81,3.1,18.71,13.49,18.71,10.94,0,18.46-8.9,20.29-19.17,1.77-9.9-3.59-17.71-13.96-17.71-9.81,0-18.16,8.91-19.82,18.18Z"/><path class="cls-3" d="M106.08,228.07h.2c3.34-4.71,8.49-7.59,14.05-7.59,11.02,0,12.85,6.85,10.88,17.88l-4.64,25.85h-4.16l4.64-25.85c1.36-7.7,1.56-14.01-7.79-14.01-10.74,0-14.3,10.02-15.86,18.73l-3.8,21.13h-4.16l7.67-42.81h4.16l-1.2,6.67Z"/><path class="cls-3" d="M155.39,221.41h4.36l11.29,38.72,23.35-38.72h4.26l-40.89,67.8h-4.25l14.62-24.26-12.75-43.54Z"/><path class="cls-3" d="M245.51,242.82c-2.28,12.69-13.91,22.32-26.52,22.32s-20.41-10.11-18.24-22.23c2.21-12.33,13.84-22.42,26.24-22.42s20.79,9.64,18.52,22.34Zm-40.58,.09c-1.75,9.72,4.4,18.34,14.47,18.34s20.06-7.99,21.93-18.34c1.9-10.55-4.74-18.55-15.31-18.55s-19.32,8.62-21.09,18.55Z"/><g><path class="cls-2" d="M153.54,207.14c-.37,2.15-2.36,3.81-4.48,3.81s-3.49-1.66-3.13-3.81c.36-2.03,2.37-3.8,4.48-3.8s3.5,1.77,3.13,3.8Zm-14.44,66.39h-4.18l10.13-52.12h4.17l-10.12,52.12Z"/><polygon class="cls-2" points="139.85 269.35 139.1 273.53 39.39 273.53 40.12 269.35 139.85 269.35"/><path class="cls-2" d="M156.66,208.1c.75-5.03-2.8-5.99-3.6-8.79-.56-1.86-.7-3.39-1.35-3.39s-1.35,1.53-2.55,3.39c-1.82,2.8-5.71,3.76-6.77,8.79-.82,3.93,1.93,7.12,5.87,7.12h0c3.93,0,7.79-3.18,8.41-7.12Z"/></g><g><path class="cls-1" d="M259.32,14.98S-18.84-67.26,109.93,153.68c0,0-11.37-131.01,149.39-138.7Z"/><path class="cls-1" d="M0,176.57s332.25,39.25,129.02-103.79c0,0,31.71,96.12-129.02,103.79Z"/></g><polygon class="cls-2" points="44.69 273.53 34.26 273.53 48.36 263.09 44.69 273.53"/></svg>